<?xml version="1.0" encoding="utf-8"?>
<!-- Generator: Adobe Illustrator 22.0.1, SVG Export Plug-In . SVG Version: 6.00 Build 0)  -->
<svg version="1.1" id="Layer_1" xmlns="http://www.w3.org/2000/svg" xmlns:xlink="http://www.w3.org/1999/xlink" x="0px" y="0px"
	 viewBox="0 0 361.4 61" style="enable-background:new 0 0 361.4 61;" xml:space="preserve">
<style type="text/css">
	.st0{fill-rule:evenodd;clip-rule:evenodd;fill:#36862B;}
	.st1{fill-rule:evenodd;clip-rule:evenodd;fill:#FFFFFF;}
	.st2{fill:#36862B;}
</style>
<path class="st0" d="M30.6,28.8c-2.8-4.7-10.4-8.1-10.5-12.7c0.4-5.1,7.9-8.6,10.5-13.2c2.6,4.6,10,8.1,10.4,13.2
	C40.9,20.7,33.5,24,30.6,28.8L30.6,28.8z"/>
<path class="st0" d="M24.6,26c-4.7-1.4-9.6,1.6-14.3,0.5c0,3.2,0,6.5,0,9.7c1.4,8,7.7,9.3,14.3,10.2C30.6,37.4,34,28.8,24.6,26
	L24.6,26z"/>
<path class="st0" d="M36.4,26c4.7-1.4,9.6,1.6,14.3,0.5c0,3.2,0,6.5,0,9.7c-1.4,8-7.7,9.3-14.3,10.2C30.4,37.4,27,28.8,36.4,26
	L36.4,26z"/>
<polygon class="st1" points="23.7,31.2 37.1,31.2 37.1,57.6 23.7,57.6 23.7,31.2 "/>
<polygon class="st1" points="17.2,51.1 17.2,37.7 43.6,37.7 43.6,51.1 17.2,51.1 "/>
<polygon class="st0" points="23.7,53.2 23.7,52.2 37.1,52.2 37.1,53.2 23.7,53.2 "/>
<polygon class="st0" points="23.7,55.4 23.7,54.3 37.1,54.3 37.1,55.4 23.7,55.4 "/>
<polygon class="st0" points="23.7,57.6 23.7,56.5 37.1,56.5 37.1,57.6 23.7,57.6 "/>
<polygon class="st0" points="17.2,47 17.2,45.9 43.6,45.9 43.6,47 17.2,47 "/>
<polygon class="st0" points="17.2,49.1 17.2,48 43.6,48 43.6,49.1 17.2,49.1 "/>
<polygon class="st0" points="17.2,51.1 17.2,50.1 43.6,50.1 43.6,51.1 17.2,51.1 "/>
<polygon class="st0" points="17.2,44.9 17.2,43.9 43.6,43.9 43.6,44.9 17.2,44.9 "/>
<path class="st0" d="M30.5,0C47.3,0,61,13.7,61,30.5C61,47.3,47.3,61,30.5,61S0,47.3,0,30.5C0,13.7,13.7,0,30.5,0L30.5,0z M30.5,1.1
	c16.2,0,29.4,13.2,29.4,29.4c0,16.2-13.2,29.4-29.4,29.4S1.1,46.7,1.1,30.5C1.1,14.3,14.3,1.1,30.5,1.1L30.5,1.1z"/>
<path class="st2" d="M79.9,34.2l1.5-0.8l-2.1-2.8l2.1-2.8L79.9,27l-2.6,3.5v0.1L79.9,34.2L79.9,34.2z M75.9,34.2l1.5-0.8l-2.1-2.8
	l2.1-2.8L75.9,27l-2.7,3.5v0.1L75.9,34.2L75.9,34.2z M88.6,35.3h2V34c3.5,0,5.6-2,5.6-4.9c0-2.9-2.1-4.9-5.6-4.9v-1.1h-2v1.1
	c-3.5,0-5.6,2-5.6,4.8c0,2.9,2.1,4.9,5.6,4.9V35.3L88.6,35.3z M88.6,32.3c-2.2,0-3.6-1.2-3.6-3.1c0-2,1.4-3.1,3.6-3.1V32.3
	L88.6,32.3z M90.6,32.3V26c2.2,0,3.6,1.2,3.6,3.1C94.1,31.2,92.8,32.3,90.6,32.3L90.6,32.3z M102,35c1.6,0,2.7-0.6,3.5-1.6l-1.1-1
	c-0.7,0.7-1.3,1-2.3,1c-1.2,0-2.2-0.8-2.4-2.1h6.2c0-0.1,0-0.4,0-0.5c0-2.4-1.4-4.5-4-4.5c-2.4,0-4.1,2-4.1,4.4
	C97.7,33.2,99.6,35,102,35L102,35z M99.6,30c0.2-1.3,1-2.2,2.2-2.2c1.3,0,2,1,2.1,2.2H99.6L99.6,30z M106.8,36.9h1.6l0.2-2h5.9v2
	h1.6l0.3-3.7h-1.2v-6.8h-6.5v1c0,2.4-0.2,4.3-0.9,5.7h-0.9V36.9L106.8,36.9z M109.7,33.2c0.5-1,0.8-2.5,0.8-4V28h2.8v5.1H109.7
	L109.7,33.2z M121.9,35c1.6,0,2.7-0.6,3.5-1.6l-1.1-1c-0.7,0.7-1.3,1-2.3,1c-1.2,0-2.2-0.8-2.4-2.1h6.2c0-0.1,0-0.4,0-0.5
	c0-2.4-1.4-4.5-4-4.5c-2.4,0-4.1,2-4.1,4.4C117.6,33.2,119.5,35,121.9,35L121.9,35z M119.5,30c0.2-1.3,1-2.2,2.2-2.2
	c1.3,0,2,1,2.1,2.2H119.5L119.5,30z M127.7,37.4h1.9v-3.9c0.6,0.8,1.5,1.5,2.9,1.5c2,0,3.9-1.6,3.9-4.4c0-2.8-1.9-4.4-3.9-4.4
	c-1.4,0-2.2,0.7-2.9,1.6v-1.4h-1.9V37.4L127.7,37.4z M132.1,33.3c-1.3,0-2.5-1.1-2.5-2.7c0-1.6,1.2-2.7,2.5-2.7
	c1.3,0,2.4,1.1,2.4,2.7C134.5,32.3,133.4,33.3,132.1,33.3L132.1,33.3z M145.5,34.8v-5c0-2.3-1.2-3.6-3.7-3.6c-1.4,0-2.3,0.3-3.2,0.7
	l0.5,1.6c0.8-0.3,1.5-0.5,2.4-0.5c1.3,0,2.1,0.6,2.1,1.8V30c-0.7-0.2-1.3-0.4-2.3-0.4c-2,0-3.4,0.9-3.4,2.8c0,1.7,1.4,2.6,3,2.6
	c1.3,0,2.2-0.5,2.7-1.2v1H145.5L145.5,34.8z M143.6,31.8c0,1.1-1,1.8-2.2,1.8c-0.9,0-1.6-0.4-1.6-1.2c0-0.8,0.7-1.3,1.9-1.3
	c0.8,0,1.4,0.1,1.9,0.3V31.8L143.6,31.8z M147.8,34.9c1.9,0,3-0.8,3-6.9h2.6v6.8h1.9v-8.4H149c0,6.4-0.7,6.9-1.6,6.9
	c-0.1,0-0.4,0-0.6-0.1l-0.1,1.6C146.9,34.9,147.5,34.9,147.8,34.9L147.8,34.9z M157.8,34.8h4c2,0,3.2-1.1,3.2-2.8
	c0-1.8-1.5-2.7-3.4-2.7h-1.9v-3h-1.9V34.8L157.8,34.8z M159.7,33.3v-2.4h1.8c1,0,1.6,0.4,1.6,1.2c0,0.8-0.6,1.2-1.5,1.2H159.7
	L159.7,33.3z M166.7,34.8h1.9v-3.4h3.7v3.4h1.9v-8.4h-1.9v3.4h-3.7v-3.4h-1.9V34.8L166.7,34.8z M176.8,34.8h3.9c2,0,3.2-1.1,3.2-2.8
	c0-1.8-1.5-2.7-3.4-2.7h-1.8v-3h-1.9V34.8L176.8,34.8z M178.7,33.3v-2.4h1.6c1,0,1.6,0.4,1.6,1.2c0,0.8-0.6,1.2-1.5,1.2H178.7
	L178.7,33.3z M185.1,34.8h1.9v-8.4h-1.9V34.8L185.1,34.8z M193.3,25.4c1.4,0,2.3-0.9,2.5-2.2l-1.2-0.2c-0.2,0.7-0.6,1.1-1.3,1.1
	s-1.1-0.4-1.3-1.1l-1.2,0.2C191,24.5,192,25.4,193.3,25.4L193.3,25.4z M189.5,34.8h1.8l4-5.6v5.6h1.9v-8.4h-1.8
	c-1.3,1.9-2.7,3.8-4,5.7v-5.7h-1.9V34.8L189.5,34.8z M204.4,34.8h1.9v-3.4h3.7v3.4h1.9v-8.4h-1.9v3.4h-3.7v-3.4h-1.9V34.8
	L204.4,34.8z M221.5,34.8v-5c0-2.3-1.2-3.6-3.7-3.6c-1.4,0-2.3,0.3-3.2,0.7l0.5,1.6c0.8-0.3,1.5-0.5,2.4-0.5c1.3,0,2.1,0.6,2.1,1.8
	V30c-0.7-0.2-1.3-0.4-2.3-0.4c-2,0-3.4,0.9-3.4,2.8c0,1.7,1.4,2.6,3,2.6c1.3,0,2.2-0.5,2.7-1.2v1H221.5L221.5,34.8z M219.7,31.8
	c0,1.1-1,1.8-2.2,1.8c-0.9,0-1.6-0.4-1.6-1.2c0-0.8,0.7-1.3,1.9-1.3c0.8,0,1.4,0.1,1.9,0.3V31.8L219.7,31.8z M225.6,37.4
	c1.4,0,2.1-0.6,2.8-2.4l3.4-8.7h-2l-2.2,6.3l-2.4-6.3H223l3.5,8.4c-0.3,0.7-0.7,1-1.2,1c-0.4,0-0.8-0.1-1.1-0.3l-0.7,1.4
	C224.2,37.2,224.8,37.4,225.6,37.4L225.6,37.4z M238.5,34.8h1.9v-8.4h-1.9v3.7c-0.6,0.3-1.3,0.6-2.1,0.6c-0.9,0-1.4-0.7-1.4-1.5
	v-2.8h-1.9v3.3c0,1.7,1.2,2.7,2.9,2.7c0.9,0,1.9-0.3,2.5-0.6V34.8L238.5,34.8z M242.9,34.8h1.9v-3.4h3.7v3.4h1.9v-8.4h-1.9v3.4h-3.7
	v-3.4h-1.9V34.8L242.9,34.8z M252.9,34.8h3.9c2,0,3.2-1.1,3.2-2.8c0-1.8-1.5-2.7-3.4-2.7h-1.8v-3h-1.9V34.8L252.9,34.8z M254.8,33.3
	v-2.4h1.6c1,0,1.6,0.4,1.6,1.2c0,0.8-0.6,1.2-1.5,1.2H254.8L254.8,33.3z M261.3,34.8h1.9v-8.4h-1.9V34.8L261.3,34.8z M269.5,25.4
	c1.4,0,2.3-0.9,2.5-2.2l-1.2-0.2c-0.2,0.7-0.6,1.1-1.3,1.1c-0.7,0-1.1-0.4-1.3-1.1l-1.2,0.2C267.2,24.5,268.1,25.4,269.5,25.4
	L269.5,25.4z M265.6,34.8h1.8l4-5.6v5.6h1.9v-8.4h-1.8c-1.3,1.9-2.7,3.8-4,5.7v-5.7h-1.9V34.8L265.6,34.8z M287.4,36.9h1.6l0.3-3.7
	h-1.2v-6.8h-1.9v6.8h-3.6v-6.8h-1.9v8.4h6.8V36.9L287.4,36.9z M294.8,35c1.6,0,2.7-0.6,3.5-1.6l-1.1-1c-0.7,0.7-1.3,1-2.3,1
	c-1.2,0-2.2-0.8-2.4-2.1h6.2c0-0.1,0-0.4,0-0.5c0-2.4-1.4-4.5-4-4.5c-2.4,0-4.1,2-4.1,4.4C290.4,33.2,292.3,35,294.8,35L294.8,35z
	 M292.4,30c0.2-1.3,1-2.2,2.2-2.2c1.3,0,2,1,2.1,2.2H292.4L292.4,30z M300.6,34.8h1.9v-3.4h3.7v3.4h1.9v-8.4h-1.9v3.4h-3.7v-3.4
	h-1.9V34.8L300.6,34.8z M312.4,34.8h2V28h2.7v-1.7h-7.4V28h2.7V34.8L312.4,34.8z M318.6,37.4h1.9v-3.9c0.6,0.8,1.5,1.5,2.9,1.5
	c2,0,3.9-1.6,3.9-4.4c0-2.8-1.9-4.4-3.9-4.4c-1.4,0-2.2,0.7-2.9,1.6v-1.4h-1.9V37.4L318.6,37.4z M323,33.3c-1.3,0-2.5-1.1-2.5-2.7
	c0-1.6,1.2-2.7,2.5-2.7c1.3,0,2.4,1.1,2.4,2.7C325.4,32.3,324.3,33.3,323,33.3L323,33.3z M77.9,51.3c-1.4,0-2.4-1.2-2.4-2.6
	c0-1.5,1-2.6,2.4-2.6c1.4,0,2.5,1.2,2.5,2.6C80.3,50.1,79.4,51.3,77.9,51.3L77.9,51.3z M77.9,53c2.5,0,4.4-2,4.4-4.3
	c0-2.3-1.9-4.1-4-4.1c-1.8,0-2.8,0.8-3.2,1.6c0.1-1.1,0.6-2,2.2-2.4l4.6-1l-0.3-1.6l-4.6,1c-3.1,0.6-3.4,3.3-3.4,5.9
	C73.5,51.2,75.1,53,77.9,53L77.9,53z M84.2,52.8h1.8l4-5.6v5.6H92v-8.4h-1.8c-1.3,1.9-2.7,3.8-4,5.7v-5.7h-1.9V52.8L84.2,52.8z
	 M98.4,53c2.6,0,4.5-2,4.5-4.4c0-2.4-1.9-4.4-4.5-4.4c-2.6,0-4.5,2-4.5,4.4C93.9,51,95.8,53,98.4,53L98.4,53z M98.4,51.3
	c-1.5,0-2.6-1.2-2.6-2.7c0-1.5,1-2.7,2.5-2.7c1.5,0,2.6,1.2,2.6,2.7C101,50.1,100,51.3,98.4,51.3L98.4,51.3z M104.8,52.9
	c1.9,0,3-0.8,3-6.9h2.6v6.8h1.9v-8.4h-6.4c0,6.4-0.7,6.9-1.6,6.9c-0.1,0-0.4,0-0.6-0.1l-0.1,1.6C104,52.8,104.5,52.9,104.8,52.9
	L104.8,52.9z M118.9,53c2.6,0,4.5-2,4.5-4.4c0-2.4-1.9-4.4-4.5-4.4s-4.5,2-4.5,4.4C114.4,51,116.3,53,118.9,53L118.9,53z
	 M118.9,51.3c-1.5,0-2.6-1.2-2.6-2.7c0-1.5,1-2.7,2.5-2.7c1.5,0,2.6,1.2,2.6,2.7C121.5,50.1,120.5,51.3,118.9,51.3L118.9,51.3z
	 M125.4,52.8h1.9V46h4v-1.7h-6V52.8L125.4,52.8z M132.9,52.8h1.8l4-5.6v5.6h1.9v-8.4h-1.8c-1.3,1.9-2.7,3.8-4,5.7v-5.7h-1.9V52.8
	L132.9,52.8z M148.2,52.8h1.9v-8.4h-1.9v3.7c-0.6,0.3-1.3,0.6-2.1,0.6c-0.9,0-1.4-0.7-1.4-1.5v-2.8h-1.9v3.3c0,1.7,1.2,2.7,2.9,2.7
	c0.9,0,1.9-0.3,2.5-0.6V52.8L148.2,52.8z M156.4,53c1.6,0,2.7-0.6,3.5-1.6l-1.1-1c-0.7,0.7-1.3,1-2.3,1c-1.2,0-2.2-0.8-2.4-2.1h6.2
	c0-0.1,0-0.4,0-0.5c0-2.4-1.4-4.5-4-4.5c-2.4,0-4.1,2-4.1,4.4C152.1,51.2,154,53,156.4,53L156.4,53z M154,48c0.2-1.3,1-2.2,2.2-2.2
	c1.3,0,2,1,2.1,2.2H154L154,48z M166.1,53c1.6,0,2.6-0.7,3.5-1.6l-1.2-1.2c-0.6,0.6-1.3,1.1-2.2,1.1c-1.5,0-2.5-1.2-2.5-2.7v0
	c0-1.5,1-2.7,2.4-2.7c1,0,1.6,0.4,2.2,1.1l1.2-1.3c-0.8-0.9-1.8-1.5-3.4-1.5c-2.5,0-4.4,2-4.4,4.4v0C161.7,51,163.6,53,166.1,53
	L166.1,53z M171.3,52.8h1.9v-2l1.4-1.5l2.6,3.5h2.3l-3.6-4.9l3.3-3.6h-2.3l-3.7,4v-4h-1.9V52.8L171.3,52.8z M184.8,53
	c2.6,0,4.5-2,4.5-4.4c0-2.4-1.9-4.4-4.5-4.4c-2.6,0-4.5,2-4.5,4.4C180.3,51,182.2,53,184.8,53L184.8,53z M184.8,51.3
	c-1.5,0-2.6-1.2-2.6-2.7c0-1.5,1-2.7,2.5-2.7c1.5,0,2.6,1.2,2.6,2.7C187.4,50.1,186.4,51.3,184.8,51.3L184.8,51.3z M195.1,43.4
	c1.4,0,2.3-0.9,2.5-2.2l-1.2-0.2c-0.2,0.7-0.6,1.1-1.3,1.1c-0.7,0-1.1-0.4-1.3-1.1l-1.2,0.2C192.8,42.5,193.8,43.4,195.1,43.4
	L195.1,43.4z M191.3,52.8h1.8l4-5.6v5.6h1.9v-8.4h-1.8c-1.3,1.9-2.7,3.8-4,5.7v-5.7h-1.9V52.8L191.3,52.8z M209.1,53
	c2,0,3.4-1.2,3.4-2.6c0-1.1-0.6-1.7-1.5-2c0.7-0.3,1.3-0.9,1.3-1.9c0-1.3-1.3-2.3-3.2-2.3c-1.4,0-2.6,0.5-3.4,1.2l0.9,1.2
	c0.6-0.6,1.5-0.9,2.4-0.9c0.8,0,1.4,0.4,1.4,1c0,0.6-0.6,1.1-1.5,1.1h-1v1.4h1c1.1,0,1.7,0.4,1.7,1.1c0,0.7-0.7,1.2-1.6,1.2
	c-1,0-1.9-0.4-2.7-1l-0.9,1.3C206.4,52.5,207.6,53,209.1,53L209.1,53z M221.6,52.8v-5c0-2.3-1.2-3.6-3.7-3.6c-1.4,0-2.3,0.3-3.2,0.7
	l0.5,1.6c0.8-0.3,1.5-0.5,2.4-0.5c1.3,0,2.1,0.6,2.1,1.8v0.2c-0.7-0.2-1.3-0.4-2.3-0.4c-2,0-3.4,0.9-3.4,2.8c0,1.7,1.4,2.6,3,2.6
	c1.3,0,2.2-0.5,2.7-1.2v1H221.6L221.6,52.8z M219.7,49.7c0,1.1-1,1.8-2.2,1.8c-0.9,0-1.6-0.4-1.6-1.2c0-0.8,0.7-1.3,1.9-1.3
	c0.8,0,1.4,0.1,1.9,0.3V49.7L219.7,49.7z M235.3,54.8h1.6l0.2-3.7h-1.2v-6.8H234v6.8h-3.1v-6.8h-1.9v6.8h-3.1v-6.8h-1.9v8.4h11.4
	V54.8L235.3,54.8z M238.7,52.8h1.8l4-5.6v5.6h1.9v-8.4h-1.8c-1.3,1.9-2.7,3.8-4,5.7v-5.7h-1.9V52.8L238.7,52.8z M250.7,52.8h2V46
	h2.7v-1.7H248V46h2.7V52.8L250.7,52.8z M256.9,52.8h3.9c2,0,3.2-1.1,3.2-2.8c0-1.8-1.5-2.7-3.4-2.7h-1.8v-3h-1.9V52.8L256.9,52.8z
	 M258.8,51.2v-2.4h1.6c1,0,1.6,0.4,1.6,1.2c0,0.8-0.6,1.2-1.5,1.2H258.8L258.8,51.2z M265.2,52.8h1.9v-8.4h-1.9V52.8L265.2,52.8z
	 M274.4,55.3h1.9v-3.9c0.6,0.8,1.5,1.5,2.9,1.5c2,0,3.9-1.6,3.9-4.4c0-2.8-1.9-4.4-3.9-4.4c-1.4,0-2.2,0.7-2.9,1.6v-1.4h-1.9V55.3
	L274.4,55.3z M278.8,51.3c-1.3,0-2.5-1.1-2.5-2.7c0-1.6,1.2-2.7,2.5-2.7c1.3,0,2.4,1.1,2.4,2.7C281.2,50.2,280.1,51.3,278.8,51.3
	L278.8,51.3z M292.2,52.8v-5c0-2.3-1.2-3.6-3.7-3.6c-1.4,0-2.3,0.3-3.2,0.7l0.5,1.6c0.8-0.3,1.5-0.5,2.4-0.5c1.3,0,2.1,0.6,2.1,1.8
	v0.2c-0.7-0.2-1.3-0.4-2.3-0.4c-2,0-3.4,0.9-3.4,2.8c0,1.7,1.4,2.6,3,2.6c1.3,0,2.2-0.5,2.7-1.2v1H292.2L292.2,52.8z M290.4,49.7
	c0,1.1-1,1.8-2.2,1.8c-0.9,0-1.6-0.4-1.6-1.2c0-0.8,0.7-1.3,1.9-1.3c0.8,0,1.4,0.1,1.9,0.3V49.7L290.4,49.7z M298.4,53
	c1.6,0,2.6-0.7,3.5-1.6l-1.2-1.2c-0.6,0.6-1.3,1.1-2.2,1.1c-1.5,0-2.5-1.2-2.5-2.7v0c0-1.5,1-2.7,2.4-2.7c1,0,1.6,0.4,2.2,1.1
	l1.2-1.3c-0.8-0.9-1.8-1.5-3.4-1.5c-2.5,0-4.4,2-4.4,4.4v0C294.1,51,295.9,53,298.4,53L298.4,53z M305.4,52.8h2V46h2.7v-1.7h-7.4V46
	h2.7V52.8L305.4,52.8z M315.5,53c1.6,0,2.7-0.6,3.5-1.6l-1.1-1c-0.7,0.7-1.3,1-2.3,1c-1.2,0-2.2-0.8-2.4-2.1h6.2c0-0.1,0-0.4,0-0.5
	c0-2.4-1.4-4.5-4-4.5c-2.4,0-4.1,2-4.1,4.4C311.1,51.2,313,53,315.5,53L315.5,53z M313.1,48c0.2-1.3,1-2.2,2.2-2.2
	c1.3,0,2,1,2.1,2.2H313.1L313.1,48z M321.3,52.8h1.9v-3.4h3.7v3.4h1.9v-8.4h-1.9v3.4h-3.7v-3.4h-1.9V52.8L321.3,52.8z M331.3,52.8
	h1.8l4-5.6v5.6h1.9v-8.4h-1.8c-1.3,1.9-2.7,3.8-4,5.7v-5.7h-1.9V52.8L331.3,52.8z M345.3,43.4c1.4,0,2.3-0.9,2.5-2.2l-1.2-0.2
	c-0.2,0.7-0.6,1.1-1.3,1.1c-0.7,0-1.1-0.4-1.3-1.1l-1.2,0.2C343,42.5,344,43.4,345.3,43.4L345.3,43.4z M341.4,52.8h1.8l4-5.6v5.6
	h1.9v-8.4h-1.8c-1.3,1.9-2.7,3.8-4,5.7v-5.7h-1.9V52.8L341.4,52.8z M356.7,52.1l2.7-3.5v-0.1l-2.7-3.5l-1.5,0.8l2.1,2.8l-2.1,2.8
	L356.7,52.1L356.7,52.1z M352.7,52.1l2.6-3.5v-0.1l-2.6-3.5l-1.5,0.8l2.1,2.8l-2.1,2.8L352.7,52.1L352.7,52.1z"/>
<path class="st2" d="M74.1,15.5h0.7v-0.9H75c1.8,0,2.8-1.1,2.8-3V9.7c0-1.9-1.1-3-2.8-3h-0.2V5.8h-0.7v0.9h-0.2
	c-1.8,0-2.8,1.1-2.8,3v1.9c0,1.9,1.1,3,2.8,3h0.2V15.5L74.1,15.5z M73.8,13.8c-1.4,0-2.1-0.7-2.1-2.3V9.7c0-1.5,0.7-2.3,2.1-2.3h0.2
	v6.4H73.8L73.8,13.8z M74.8,13.8V7.4H75c1.4,0,2.1,0.7,2.1,2.3v1.9c0,1.5-0.7,2.3-2.1,2.3H74.8L74.8,13.8z M82.5,12.9
	c-0.1,0.9-0.6,1.4-1.5,1.4c-0.8,0-1.3-0.5-1.3-1.5V12h3.4v-1.4c0-1.4-0.8-2.2-2.1-2.2c-1.2,0-2,0.8-2,2.2v2.1c0,1.4,0.8,2.2,2,2.2
	c1.3,0,2.1-0.7,2.2-2.1H82.5L82.5,12.9z M81,9.1c0.9,0,1.4,0.5,1.4,1.5v0.7h-2.7v-0.7C79.7,9.6,80.2,9.1,81,9.1L81,9.1z M83.7,16.2
	h0.7v-1.4h3.8v1.4h0.7v-2.1h-0.7V8.5h-3.3c0,0.9,0,1.8-0.1,2.8c-0.1,1.2-0.3,2.2-0.6,2.8h-0.5V16.2L83.7,16.2z M85,14.2
	c0.3-0.6,0.4-1.5,0.5-2.7c0.1-0.7,0.1-1.5,0.1-2.2h1.9v5H85L85,14.2z M93.2,12.9c-0.1,0.9-0.6,1.4-1.5,1.4c-0.8,0-1.3-0.5-1.3-1.5
	V12h3.4v-1.4c0-1.4-0.8-2.2-2.1-2.2c-1.2,0-2,0.8-2,2.2v2.1c0,1.4,0.8,2.2,2,2.2c1.3,0,2.1-0.7,2.2-2.1H93.2L93.2,12.9z M91.8,9.1
	c0.9,0,1.4,0.5,1.4,1.5v0.7h-2.7v-0.7C90.4,9.6,90.9,9.1,91.8,9.1L91.8,9.1z M97.4,8.4c-0.6,0-1.2,0.3-1.5,0.7l-0.1-0.6h-0.6V17H96
	v-2.7c0.3,0.5,0.9,0.7,1.5,0.7c1.2,0,2-0.8,2-2.4v-1.8C99.4,9.2,98.6,8.4,97.4,8.4L97.4,8.4z M98.7,12.6c0,1.2-0.5,1.7-1.4,1.7
	c-0.8,0-1.3-0.7-1.3-1.7v-1.8C96,9.6,96.5,9,97.3,9c0.9,0,1.4,0.5,1.4,1.8V12.6L98.7,12.6z M102.7,8.4c-1.2,0-1.9,0.7-2,1.8h0.7
	c0-0.7,0.5-1.1,1.3-1.1c0.8,0,1.2,0.5,1.2,1.4v0.7h-1.2c-1.4,0-2.2,0.7-2.2,1.9c0,1.2,0.8,1.9,2,1.9c0.7,0,1.2-0.3,1.5-0.7l0.1,0.6
	h0.6v-4.4C104.6,9.2,103.9,8.4,102.7,8.4L102.7,8.4z M102.6,14.3c-0.8,0-1.4-0.4-1.4-1.2c0-0.8,0.5-1.2,1.4-1.2h1.3v1.2
	C103.9,13.8,103.4,14.3,102.6,14.3L102.6,14.3z M105.4,14.9c1.1,0,1.5-1,1.7-2.9c0-0.7,0.1-1.9,0.1-2.8h1.8v5.6h0.7V8.5h-3.2
	c0,1.2,0,2.2-0.1,3.4c-0.1,1.3-0.2,2.3-1,2.3V14.9L105.4,14.9z M113.2,10.8H112V8.5h-0.7v6.3h1.9c1.1,0,2.1-0.9,2.1-2.1
	C115.3,11.6,114.3,10.8,113.2,10.8L113.2,10.8z M113.2,14.1H112v-2.7h1.2c0.8,0,1.3,0.5,1.3,1.3C114.5,13.6,114,14.1,113.2,14.1
	L113.2,14.1z M119.3,8.5v2.7h-2.4V8.5h-0.7v6.3h0.7v-2.9h2.4v2.9h0.7V8.5H119.3L119.3,8.5z M123.6,15c1.3,0,2.1-0.8,2.1-2.3v-2
	c0-1.5-0.8-2.3-2.1-2.3c-1.3,0-2.1,0.8-2.1,2.3v2C121.5,14.2,122.3,15,123.6,15L123.6,15z M123.6,14.3c-0.9,0-1.4-0.5-1.4-1.6v-2
	c0-1.1,0.5-1.6,1.4-1.6c0.9,0,1.4,0.5,1.4,1.6v2C124.9,13.8,124.4,14.3,123.6,14.3L123.6,14.3z M130.5,12.9
	c-0.1,0.9-0.6,1.4-1.5,1.4c-0.8,0-1.3-0.5-1.3-1.5V12h3.4v-1.4c0-1.4-0.8-2.2-2.1-2.2c-1.2,0-2,0.8-2,2.2v2.1c0,1.4,0.8,2.2,2,2.2
	c1.3,0,2.1-0.7,2.2-2.1H130.5L130.5,12.9z M129,9.1c0.9,0,1.4,0.5,1.4,1.5v0.7h-2.7v-0.7C127.7,9.6,128.2,9.1,129,9.1L129,9.1z
	 M138.4,8.5h-3.1v6.3h0.7V9.2h2.4V8.5L138.4,8.5z M141,15c1.3,0,2.1-0.8,2.1-2.3v-2c0-1.5-0.8-2.3-2.1-2.3s-2.1,0.8-2.1,2.3v2
	C138.9,14.2,139.8,15,141,15L141,15z M141,14.3c-0.9,0-1.4-0.5-1.4-1.6v-2c0-1.1,0.5-1.6,1.4-1.6c0.9,0,1.4,0.5,1.4,1.6v2
	C142.4,13.8,141.9,14.3,141,14.3L141,14.3z M146.4,15c1.2,0,2.1-0.8,2.1-2.2h-0.7c0,1.1-0.5,1.5-1.4,1.5c-0.8,0-1.3-0.5-1.3-1.5
	v-2.1c0-1.1,0.5-1.5,1.3-1.5c0.8,0,1.3,0.5,1.4,1.5h0.7c0-1.4-0.8-2.2-2.1-2.2c-1.2,0-2,0.8-2,2.2v2.1C144.4,14.1,145.2,15,146.4,15
	L146.4,15z M152.8,8.5l-1.4,4.6l-1.6-4.6H149l2,5.7l-0.4,1.3c-0.2,0.5-0.3,0.9-0.9,0.9h-0.3v0.7h0.4c0.9,0,1.2-0.6,1.5-1.5l2.1-7.1
	H152.8L152.8,8.5z M153.4,16.2h0.7v-1.4h3.8v1.4h0.7v-2.1h-0.7V8.5h-3.3c0,0.9,0,1.8-0.1,2.8c-0.1,1.2-0.3,2.2-0.6,2.8h-0.5V16.2
	L153.4,16.2z M154.7,14.2c0.3-0.6,0.4-1.5,0.5-2.7c0.1-0.7,0.1-1.5,0.1-2.2h1.9v5H154.7L154.7,14.2z M161.4,8.4
	c-1.2,0-1.9,0.7-2,1.8h0.7c0-0.7,0.5-1.1,1.3-1.1c0.8,0,1.2,0.5,1.2,1.4v0.7h-1.2c-1.4,0-2.2,0.7-2.2,1.9c0,1.2,0.8,1.9,2,1.9
	c0.7,0,1.2-0.3,1.5-0.7l0.1,0.6h0.6v-4.4C163.4,9.2,162.6,8.4,161.4,8.4L161.4,8.4z M161.3,14.3c-0.8,0-1.4-0.4-1.4-1.2
	c0-0.8,0.5-1.2,1.4-1.2h1.3v1.2C162.7,13.8,162.1,14.3,161.3,14.3L161.3,14.3z M167.1,8.4c-0.6,0-1.2,0.3-1.5,0.7l-0.1-0.6h-0.6V17
	h0.7v-2.7c0.3,0.5,0.9,0.7,1.5,0.7c1.2,0,2-0.8,2-2.4v-1.8C169.1,9.2,168.2,8.4,167.1,8.4L167.1,8.4z M168.3,12.6
	c0,1.2-0.5,1.7-1.4,1.7c-0.8,0-1.3-0.7-1.3-1.7v-1.8c0-1.2,0.6-1.7,1.3-1.7c0.9,0,1.4,0.5,1.4,1.8V12.6L168.3,12.6z M172.3,15
	c1.2,0,2.1-0.8,2.1-2.2h-0.7c0,1.1-0.5,1.5-1.4,1.5c-0.8,0-1.3-0.5-1.3-1.5v-2.1c0-1.1,0.5-1.5,1.3-1.5c0.8,0,1.3,0.5,1.4,1.5h0.7
	c0-1.4-0.8-2.2-2.1-2.2c-1.2,0-2,0.8-2,2.2v2.1C170.3,14.1,171.1,15,172.3,15L172.3,15z M178.9,8.5H175v0.7h1.6v5.6h0.7V9.2h1.6V8.5
	L178.9,8.5z M182.6,11.5c0.5-0.3,0.7-0.8,0.7-1.3c0-1-0.7-1.7-1.9-1.7h-1.7v6.3h1.8c1.3,0,2.1-0.7,2.1-1.8
	C183.7,12.4,183.3,11.7,182.6,11.5L182.6,11.5z M180.5,9.2h0.9c0.8,0,1.2,0.4,1.2,1c0,0.6-0.4,1-1.2,1h-0.9V9.2L180.5,9.2z
	 M181.6,14.2h-1.1v-2.3h1.1c0.9,0,1.4,0.4,1.4,1.1C183,13.8,182.5,14.2,181.6,14.2L181.6,14.2z M188.2,12.9
	c-0.1,0.9-0.6,1.4-1.5,1.4c-0.8,0-1.3-0.5-1.3-1.5V12h3.4v-1.4c0-1.4-0.8-2.2-2.1-2.2c-1.2,0-2,0.8-2,2.2v2.1c0,1.4,0.8,2.2,2,2.2
	c1.3,0,2.1-0.7,2.2-2.1H188.2L188.2,12.9z M186.8,9.1c0.9,0,1.4,0.5,1.4,1.5v0.7h-2.7v-0.7C185.4,9.6,185.9,9.1,186.8,9.1L186.8,9.1
	z M193.4,8.5v2.7H191V8.5h-0.7v6.3h0.7v-2.9h2.4v2.9h0.7V8.5H193.4L193.4,8.5z M198.8,8.5v2.7h-2.4V8.5h-0.7v6.3h0.7v-2.9h2.4v2.9
	h0.7V8.5H198.8L198.8,8.5z M203,15c1.3,0,2.1-0.8,2.1-2.3v-2c0-1.5-0.8-2.3-2.1-2.3c-1.3,0-2.1,0.8-2.1,2.3v2
	C200.9,14.2,201.7,15,203,15L203,15z M203,14.3c-0.9,0-1.4-0.5-1.4-1.6v-2c0-1.1,0.5-1.6,1.4-1.6c0.9,0,1.4,0.5,1.4,1.6v2
	C204.4,13.8,203.9,14.3,203,14.3L203,14.3z M209.9,12.9c-0.1,0.9-0.6,1.4-1.5,1.4c-0.8,0-1.3-0.5-1.3-1.5V12h3.4v-1.4
	c0-1.4-0.8-2.2-2.1-2.2c-1.2,0-2,0.8-2,2.2v2.1c0,1.4,0.8,2.2,2,2.2c1.3,0,2.1-0.7,2.2-2.1H209.9L209.9,12.9z M208.4,9.1
	c0.9,0,1.4,0.5,1.4,1.5v0.7h-2.7v-0.7C207.1,9.6,207.6,9.1,208.4,9.1L208.4,9.1z M216.9,8.8c-0.7,0-1.2,0.3-1.5,0.8V9.2
	c0-1.3,0.9-1.6,1.5-1.8c0.6-0.2,1.2-0.4,1.5-1l-0.6-0.4c-0.3,0.5-0.6,0.6-1.1,0.7c-0.7,0.2-2.1,0.7-2.1,2.5v3.5
	c0,1.5,0.8,2.3,2.1,2.3c1.2,0,2.1-0.8,2.1-2.3v-1.6C218.8,9.6,218,8.8,216.9,8.8L216.9,8.8z M218.1,12.7c0,1.1-0.5,1.6-1.3,1.6
	c-0.8,0-1.3-0.5-1.3-1.6v-1.6c0-1.2,0.7-1.6,1.4-1.6c0.8,0,1.3,0.5,1.3,1.7V12.7L218.1,12.7z M224.1,8.4c-1.2,0-2,0.8-2,2.3v0.6
	h-1.1V8.5h-0.7v6.3h0.7v-2.9h1.1v0.7c0,1.5,0.8,2.3,2,2.3s2-0.8,2-2.3v-2C226.1,9.2,225.3,8.4,224.1,8.4L224.1,8.4z M225.4,12.7
	c0,1.1-0.5,1.6-1.3,1.6c-0.8,0-1.3-0.5-1.3-1.6v-2c0-1.1,0.5-1.6,1.3-1.6c0.8,0,1.3,0.5,1.3,1.6V12.7L225.4,12.7z M226.6,16.2h0.7
	v-1.4h3.8v1.4h0.7v-2.1h-0.7V8.5h-3.3c0,0.9,0,1.8-0.1,2.8c-0.1,1.2-0.3,2.2-0.6,2.8h-0.5V16.2L226.6,16.2z M227.9,14.2
	c0.3-0.6,0.4-1.5,0.5-2.7c0.1-0.7,0.1-1.5,0.1-2.2h1.9v5H227.9L227.9,14.2z M238.4,14.8h0.9l-2.4-3.5l2.2-2.8h-0.9l-1.2,1.5
	c-0.3,0.4-0.6,0.9-1,1.3V8.5h-0.7v2.8c-0.3-0.4-0.6-0.9-1-1.3l-1.2-1.5h-0.9l2.2,2.8l-2.4,3.5h0.9l1.9-3l0.4,0.5v2.5h0.7v-2.5
	l0.4-0.5L238.4,14.8L238.4,14.8z M243.2,12.9c-0.1,0.9-0.6,1.4-1.5,1.4c-0.8,0-1.3-0.5-1.3-1.5V12h3.4v-1.4c0-1.4-0.8-2.2-2.1-2.2
	c-1.2,0-2,0.8-2,2.2v2.1c0,1.4,0.8,2.2,2,2.2c1.3,0,2.1-0.7,2.2-2.1H243.2L243.2,12.9z M241.7,9.1c0.9,0,1.4,0.5,1.4,1.5v0.7h-2.7
	v-0.7C240.4,9.6,240.9,9.1,241.7,9.1L241.7,9.1z M248.4,8.5h-3.8v0.7h1.6v5.6h0.7V9.2h1.6V8.5L248.4,8.5z M252.4,8.5v2.7H250V8.5
	h-0.7v6.3h0.7v-2.9h2.4v2.9h0.7V8.5H252.4L252.4,8.5z M256.7,15c1.3,0,2.1-0.8,2.1-2.3v-2c0-1.5-0.8-2.3-2.1-2.3
	c-1.3,0-2.1,0.8-2.1,2.3v2C254.6,14.2,255.4,15,256.7,15L256.7,15z M256.7,14.3c-0.9,0-1.4-0.5-1.4-1.6v-2c0-1.1,0.5-1.6,1.4-1.6
	c0.9,0,1.4,0.5,1.4,1.6v2C258.1,13.8,257.5,14.3,256.7,14.3L256.7,14.3z M263.6,12.9c-0.1,0.9-0.6,1.4-1.5,1.4
	c-0.8,0-1.3-0.5-1.3-1.5V12h3.4v-1.4c0-1.4-0.8-2.2-2.1-2.2c-1.2,0-2,0.8-2,2.2v2.1c0,1.4,0.8,2.2,2,2.2c1.3,0,2.1-0.7,2.2-2.1
	H263.6L263.6,12.9z M262.1,9.1c0.9,0,1.4,0.5,1.4,1.5v0.7h-2.7v-0.7C260.8,9.6,261.3,9.1,262.1,9.1L262.1,9.1z M271.5,8.5v2.7h-2.4
	V8.5h-0.7v6.3h0.7v-2.9h2.4v2.9h0.7V8.5H271.5L271.5,8.5z M275.6,8.4c-1.2,0-1.9,0.7-2,1.8h0.7c0-0.7,0.5-1.1,1.3-1.1
	c0.8,0,1.2,0.5,1.2,1.4v0.7h-1.2c-1.4,0-2.2,0.7-2.2,1.9c0,1.2,0.8,1.9,2,1.9c0.7,0,1.2-0.3,1.5-0.7l0.1,0.6h0.6v-4.4
	C277.5,9.2,276.8,8.4,275.6,8.4L275.6,8.4z M275.5,14.3c-0.8,0-1.4-0.4-1.4-1.2c0-0.8,0.5-1.2,1.4-1.2h1.3v1.2
	C276.8,13.8,276.3,14.3,275.5,14.3L275.5,14.3z M281.9,8.5l-1.4,4.6L279,8.5h-0.8l2,5.7l-0.4,1.3c-0.2,0.5-0.3,0.9-0.9,0.9h-0.3v0.7
	h0.4c0.9,0,1.2-0.6,1.5-1.5l2.1-7.1H281.9L281.9,8.5z M286.4,8.5v3.2c-0.4,0.2-0.8,0.3-1.2,0.3c-0.7,0-1.3-0.5-1.3-1.8V8.5h-0.7v1.7
	c0,1.7,0.9,2.5,1.9,2.5c0.4,0,0.9,0,1.3-0.3v2.4h0.7V8.5H286.4L286.4,8.5z M291.8,8.5v2.7h-2.4V8.5h-0.7v6.3h0.7v-2.9h2.4v2.9h0.7
	V8.5H291.8L291.8,8.5z M296,15c1.3,0,2.1-0.8,2.1-2.3v-2c0-1.5-0.8-2.3-2.1-2.3c-1.3,0-2.1,0.8-2.1,2.3v2
	C293.9,14.2,294.8,15,296,15L296,15z M296,14.3c-0.9,0-1.4-0.5-1.4-1.6v-2c0-1.1,0.5-1.6,1.4-1.6c0.9,0,1.4,0.5,1.4,1.6v2
	C297.4,13.8,296.9,14.3,296,14.3L296,14.3z M302.9,12.9c-0.1,0.9-0.6,1.4-1.5,1.4c-0.8,0-1.3-0.5-1.3-1.5V12h3.4v-1.4
	c0-1.4-0.8-2.2-2.1-2.2c-1.2,0-2,0.8-2,2.2v2.1c0,1.4,0.8,2.2,2,2.2c1.3,0,2.1-0.7,2.2-2.1H302.9L302.9,12.9z M301.4,9.1
	c0.9,0,1.4,0.5,1.4,1.5v0.7h-2.7v-0.7C300.1,9.6,300.6,9.1,301.4,9.1L301.4,9.1z M310.7,8.5l-1.4,4.6l-1.6-4.6H307l2,5.7l-0.4,1.3
	c-0.2,0.5-0.3,0.9-0.9,0.9h-0.3v0.7h0.4c0.9,0,1.2-0.6,1.5-1.5l2.1-7.1H310.7L310.7,8.5z M315.1,8.5v3.2c-0.4,0.2-0.8,0.3-1.2,0.3
	c-0.7,0-1.3-0.5-1.3-1.8V8.5h-0.7v1.7c0,1.7,0.9,2.5,1.9,2.5c0.4,0,0.9,0,1.3-0.3v2.4h0.7V8.5H315.1L315.1,8.5z M319.6,8.4
	c-0.6,0-1.2,0.3-1.5,0.7L318,8.5h-0.6V17h0.7v-2.7c0.3,0.5,0.9,0.7,1.5,0.7c1.2,0,2-0.8,2-2.4v-1.8C321.6,9.2,320.7,8.4,319.6,8.4
	L319.6,8.4z M320.8,12.6c0,1.2-0.5,1.7-1.4,1.7c-0.8,0-1.3-0.7-1.3-1.7v-1.8c0-1.2,0.6-1.7,1.3-1.7c0.9,0,1.4,0.5,1.4,1.8V12.6
	L320.8,12.6z M326.3,12.9c-0.1,0.9-0.6,1.4-1.5,1.4c-0.8,0-1.3-0.5-1.3-1.5V12h3.4v-1.4c0-1.4-0.8-2.2-2.1-2.2c-1.2,0-2,0.8-2,2.2
	v2.1c0,1.4,0.8,2.2,2,2.2c1.3,0,2.1-0.7,2.2-2.1H326.3L326.3,12.9z M324.9,9.1c0.9,0,1.4,0.5,1.4,1.5v0.7h-2.7v-0.7
	C323.5,9.6,324.1,9.1,324.9,9.1L324.9,9.1z M333.9,14.8h0.9l-2.4-3.5l2.2-2.8h-0.9l-1.2,1.5c-0.3,0.4-0.6,0.9-1,1.3V8.5h-0.7v2.8
	c-0.3-0.4-0.6-0.9-1-1.3l-1.2-1.5h-0.9l2.2,2.8l-2.4,3.5h0.9l1.9-3l0.4,0.5v2.5h0.7v-2.5l0.4-0.5L333.9,14.8L333.9,14.8z
	 M334.9,16.2h0.7v-1.4h3.8v1.4h0.7v-2.1h-0.7V8.5h-3.3c0,0.9,0,1.8-0.1,2.8c-0.1,1.2-0.3,2.2-0.6,2.8h-0.5V16.2L334.9,16.2z
	 M336.2,14.2c0.3-0.6,0.4-1.5,0.5-2.7c0.1-0.7,0.1-1.5,0.1-2.2h1.9v5H336.2L336.2,14.2z M344.4,12.9c-0.1,0.9-0.6,1.4-1.5,1.4
	c-0.8,0-1.3-0.5-1.3-1.5V12h3.4v-1.4c0-1.4-0.8-2.2-2.1-2.2c-1.2,0-2,0.8-2,2.2v2.1c0,1.4,0.8,2.2,2,2.2c1.3,0,2.1-0.7,2.2-2.1
	H344.4L344.4,12.9z M343,9.1c0.9,0,1.4,0.5,1.4,1.5v0.7h-2.7v-0.7C341.6,9.6,342.1,9.1,343,9.1L343,9.1z M349.6,8.5v2.7h-2.4V8.5
	h-0.7v6.3h0.7v-2.9h2.4v2.9h0.7V8.5H349.6L349.6,8.5z M351.9,14.8h0.7l2-3.9c0.2-0.4,0.4-0.9,0.5-1.1l0,0c0,0.5,0,1,0,1.7v3.4h0.7
	V8.5H355l-2,4.1c-0.1,0.3-0.3,0.7-0.4,0.9l0,0c0-0.5,0-0.9,0-1.4V8.5h-0.7V14.8L351.9,14.8z M360.7,12.9c-0.1,0.9-0.6,1.4-1.5,1.4
	c-0.8,0-1.3-0.5-1.3-1.5V12h3.4v-1.4c0-1.4-0.8-2.2-2.1-2.2c-1.2,0-2,0.8-2,2.2v2.1c0,1.4,0.8,2.2,2,2.2c1.3,0,2.1-0.7,2.2-2.1
	H360.7L360.7,12.9z M359.2,9.1c0.9,0,1.4,0.5,1.4,1.5v0.7h-2.7v-0.7C357.9,9.6,358.4,9.1,359.2,9.1L359.2,9.1z"/>
</svg>
